<svg fill="none" height="64" viewBox="0 0 64 64" width="64" xmlns="http://www.w3.org/2000/svg"><g fill="#fff"><path d="m50.9653 27.832c.2817.9205.4217 2.0757.4217 3.4836 0 1.4078-.2458 2.9238-.7358 4.5482-1.3318 3.7362-3.3654 4.2237-6.1008 4.2237h-14.1004l-.0629 3.2307h10.841l.0628 2.5992c0 2.3284-1.6136 3.9889-4.8372 4.9636-3.5771.9927-6.9765.9927-10.2019 0-3.4354-.9747-3.9416-2.6533-3.9416-4.9817v-5.7036-3.5015c0-2.2561-.0556-3.6821 2.258-4.3138.5618-.1444 1.4318-.3611 3.4318-.3611 3.2726 0 6.5487.0361 9.8197.0361 1.4736-.1985 2.6384-.9564 3.6812-2.1116.5098-.5595.1939-2.6714.1939-4.4403v-4.0249-.3067h2.8556c1.4736 0 2.7875.6135 3.9452 1.8408 1.1559 1.2454 1.9797 2.8338 2.4697 4.8193zm-14.3016 16.9121c-1.2618 0-1.8935.6137-1.8935 1.805 0 .5595.1759 1.0288.5259 1.3717.35.361.8058.5235 1.3676.5235 1.1918 0 1.7878-.6318 1.7878-1.8952 0-1.1913-.596-1.805-1.7878-1.805z" fill-opacity=".5"/><path d="m24.5657 30.5654c-1.4718.2888-2.1593.2433-3.0657 1.4346-.5869.7581-.8077 3.1137-.8077 4.5938v4.8734h-2.8574c-1.5418 0-2.9095-.6859-4.1013-2.0757-1.1918-1.3717-1.9977-3.1045-2.4177-5.2343-.2118-.9025-.3159-1.859-.3159-2.8517v-.1084c0-2.8157.666-5.1981 1.9978-7.1294 1.3317-1.9493 2.9955-1.751 4.8873-1.751h12.4994v-3.2306h-9.3691l.0807-2.6894c0-1.48.316-2.5812.946-3.3212.6318-.7581 1.9276-1.2994 3.8912-1.6423 1.8236-.2888 3.4013-.4332 4.7331-.4332 2.3836 0 4.3112.1444 5.7848.4332 1.3318.1985 1.6011.1643 2.5488 1.0668.9459.9205 1.0768 2.6333 1.0768 3.8967v9.3133c0 2.3825.0539 3.9167-2.2596 4.5485-.56.1263-1.016.1985-1.366.1985-3.884 0-8.7292-.1985-11.8855.1084zm1.1576-12.9053c1.1918 0 1.7877-.5956 1.7877-1.7869 0-1.2815-.5959-1.9133-1.7877-1.9133-.5618 0-1.0158.1806-1.3676.5416-.35.3429-.526.8122-.526 1.3717 0 1.1913.6318 1.7869 1.8936 1.7869z"/></g></svg>